<svg width="30" height="22" viewBox="0 0 30 22" fill="none" xmlns="http://www.w3.org/2000/svg">
<path fill-rule="evenodd" clip-rule="evenodd" d="M0 2C0 0.895508 0.895508 0 2 0H28C29.1045 0 30 0.895508 30 2C30 3.10449 29.1045 4 28 4H2C0.895508 4 0 3.10449 0 2ZM0 11C0 9.89551 0.895508 9 2 9H28C29.1045 9 30 9.89551 30 11C30 12.1045 29.1045 13 28 13H2C0.895508 13 0 12.1045 0 11ZM2 18C0.895508 18 0 18.8955 0 20C0 21.1045 0.895508 22 2 22H28C29.1045 22 30 21.1045 30 20C30 18.8955 29.1045 18 28 18H2Z" fill="#BDEFEA"/>
</svg>
