<svg width="254" height="58" viewBox="0 0 254 58" fill="none" xmlns="http://www.w3.org/2000/svg">
<path d="M0 2C0 0.895508 0.894531 0 2 0H3C9.62695 0 15 5.37256 15 12V28C15 32.4185 18.582 36 23 36H50C51.1055 36 52 36.8955 52 38C52 39.1045 51.1055 40 50 40H23C16.373 40 11 34.6274 11 28V12C11 7.58154 7.41797 4 3 4H2C0.894531 4 0 3.10449 0 2Z" fill="white"/>
<path fill-rule="evenodd" clip-rule="evenodd" d="M18 44C14.1348 44 11 47.1338 11 51C11 54.8662 14.1348 58 18 58C21.8652 58 25 54.8662 25 51C25 47.1338 21.8652 44 18 44ZM15 51C15 49.3433 16.3438 48 18 48C19.6562 48 21 49.3433 21 51C21 52.6567 19.6562 54 18 54C16.3438 54 15 52.6567 15 51Z" fill="white"/>
<path fill-rule="evenodd" clip-rule="evenodd" d="M42 44C38.1348 44 35 47.1338 35 51C35 54.8662 38.1348 58 42 58C45.8652 58 49 54.8662 49 51C49 47.1338 45.8652 44 42 44ZM39 51C39 49.3433 40.3438 48 42 48C43.6562 48 45 49.3433 45 51C45 52.6567 43.6562 54 42 54C40.3438 54 39 52.6567 39 51Z" fill="white"/>
<path d="M23 8H29V16C29 17.1045 29.8945 18 31 18C32.1055 18 33 17.1045 33 16V8H39C41.209 8 43 9.79102 43 12V28C43 30.209 41.209 32 39 32H23C20.791 32 19 30.209 19 28V12C19 9.79102 20.791 8 23 8Z" fill="white"/>
<path d="M103.16 14.304C104.336 13.08 105.608 12.432 107.504 12.432C110.216 12.432 112.232 14.472 112.232 17.664V24H110.048V17.784C110.048 15.648 108.944 14.424 107.072 14.424C105.968 14.424 104.864 14.952 104 16.272C104.096 16.704 104.144 17.184 104.144 17.664V24H101.936V17.784C101.936 15.648 100.832 14.424 98.9599 14.424C97.9279 14.424 96.8719 15 96.0319 16.224V24H93.8239V12.792H96.0319V13.8C96.8719 12.936 97.8559 12.432 99.3919 12.432C100.976 12.432 102.32 13.104 103.16 14.304Z" fill="white"/>
<path d="M120.805 8.61596C120.805 9.40796 120.157 10.008 119.365 10.008C118.549 10.008 117.925 9.40796 117.925 8.61596C117.925 7.82396 118.549 7.22396 119.365 7.22396C120.157 7.22396 120.805 7.82396 120.805 8.61596Z" fill="white"/>
<path d="M118.285 12.792H120.469V24H118.285V12.792Z" fill="white"/>
<path d="M126.772 6.95996H128.98V24H126.772V6.95996Z" fill="white"/>
<path d="M143.672 24L139.52 19.008L137.336 21.192V24H135.128V6.95996H137.336V18.288L142.952 12.792H145.76L141.08 17.472L146.528 24H143.672Z" fill="white"/>
<path d="M160.432 14.304C161.608 13.08 162.88 12.432 164.776 12.432C167.488 12.432 169.504 14.472 169.504 17.664V24H167.32V17.784C167.32 15.648 166.216 14.424 164.344 14.424C163.24 14.424 162.136 14.952 161.272 16.272C161.368 16.704 161.416 17.184 161.416 17.664V24H159.208V17.784C159.208 15.648 158.104 14.424 156.232 14.424C155.2 14.424 154.144 15 153.304 16.224V24H151.096V12.792H153.304V13.8C154.144 12.936 155.128 12.432 156.664 12.432C158.248 12.432 159.592 13.104 160.432 14.304Z" fill="white"/>
<path fill-rule="evenodd" clip-rule="evenodd" d="M184.103 12.792H186.311V24H184.103V23.016C183.143 23.808 181.847 24.288 180.359 24.288C177.191 24.288 174.647 21.672 174.647 18.408C174.647 15.12 177.191 12.504 180.359 12.504C181.847 12.504 183.143 12.984 184.103 13.776V12.792ZM176.855 18.408C176.855 20.52 178.487 22.368 180.671 22.368C182.015 22.368 183.239 21.84 184.103 20.568V16.224C183.239 14.952 182.015 14.424 180.671 14.424C178.487 14.424 176.855 16.248 176.855 18.408Z" fill="white"/>
<path d="M194.573 13.92C195.581 12.984 196.877 12.432 198.365 12.432C201.269 12.432 203.213 14.472 203.213 17.664V24H201.029V17.784C201.029 15.648 199.829 14.424 197.933 14.424C196.733 14.424 195.509 15.096 194.573 16.296V24H192.365V12.792H194.573V13.92Z" fill="white"/>
<path d="M109.218 38.76H111.954L107.94 51.072H105.402L102.72 43.278L100.056 51.072H97.4999L93.5039 38.76H96.2399L98.8139 47.004L101.64 38.76H103.818L106.644 47.004L109.218 38.76Z" fill="white"/>
<path fill-rule="evenodd" clip-rule="evenodd" d="M126.403 51L125.449 48.642H119.905L118.951 51H116.179L121.453 38.688H123.901L129.157 51H126.403ZM120.859 46.284H124.477L122.659 41.802L120.859 46.284Z" fill="white"/>
<path fill-rule="evenodd" clip-rule="evenodd" d="M143.806 51L140.8 47.202H138.676V51H136.066V38.76H141.286C144.112 38.76 146.146 40.416 146.146 42.972C146.146 44.754 145.156 46.104 143.59 46.77L146.938 51H143.806ZM138.676 41.136V44.808H141.196C142.51 44.808 143.572 44.088 143.572 42.972C143.572 41.838 142.51 41.136 141.196 41.136H138.676Z" fill="white"/>
<path d="M162.79 41.118H156.328V43.782H162.052V46.14H156.328V48.642H162.79V51H153.718V38.76H162.79V41.118Z" fill="white"/>
<path d="M178.222 38.76H180.832V51H178.222V46.212H172.75V51H170.14V38.76H172.75V43.836H178.222V38.76Z" fill="white"/>
<path fill-rule="evenodd" clip-rule="evenodd" d="M188.348 44.88C188.348 41.334 191.174 38.508 194.738 38.508C198.32 38.508 201.146 41.334 201.146 44.88C201.146 48.426 198.32 51.252 194.738 51.252C191.174 51.252 188.348 48.426 188.348 44.88ZM190.976 44.88C190.976 47.04 192.578 48.822 194.738 48.822C196.916 48.822 198.5 47.04 198.5 44.88C198.5 42.72 196.916 40.938 194.738 40.938C192.578 40.938 190.976 42.72 190.976 44.88Z" fill="white"/>
<path d="M216.818 38.76H219.41V45.438C219.41 49.092 217.214 51.27 213.866 51.27C210.536 51.27 208.358 49.092 208.358 45.438V38.76H210.95V45.456C210.95 47.49 212.12 48.84 213.866 48.84C215.648 48.84 216.818 47.49 216.818 45.456V38.76Z" fill="white"/>
<path d="M227.037 42.414C227.037 40.056 228.909 38.49 231.717 38.49C233.769 38.49 236.523 39.336 236.811 42.504H234.237C234.075 41.424 233.391 40.704 231.915 40.704C230.637 40.704 229.791 41.244 229.791 42.198C229.791 43.026 230.403 43.386 231.519 43.602L233.031 43.908C235.371 44.412 236.757 45.312 236.757 47.364C236.757 49.704 234.831 51.252 231.897 51.252C228.945 51.252 226.749 49.686 226.533 46.95H229.125C229.323 48.192 230.403 48.966 232.041 48.966C233.337 48.966 234.057 48.48 234.057 47.652C234.057 47.148 233.769 46.626 232.527 46.392L230.529 46.014C228.099 45.528 227.037 44.322 227.037 42.414Z" fill="white"/>
<path d="M253.37 41.118H246.908V43.782H252.632V46.14H246.908V48.642H253.37V51H244.298V38.76H253.37V41.118Z" fill="white"/>
</svg>
