<svg width="238" height="77" viewBox="0 0 238 77" fill="none" xmlns="http://www.w3.org/2000/svg">
<path d="M47 46C47 47.1046 46.1045 48 45 48H11C10.4695 48 9.96094 47.7893 9.58569 47.4142C9.21069 47.0391 9 46.5305 9 46V4H2C0.895508 4 0 3.10455 0 2C0 0.895447 0.895508 0 2 0H11C12.1045 0 13 0.895447 13 2V44H45C46.1045 44 47 44.8954 47 46Z" transform="translate(3 7)" fill="white"/>
<path fill-rule="evenodd" clip-rule="evenodd" d="M17 20V2C17 0.895447 17.8955 0 19 0H37C38.1045 0 39 0.895447 39 2V20V38C39 39.1046 38.1045 40 37 40H19C17.8955 40 17 39.1046 17 38V20ZM35 22H21V36H35V22ZM21 18H35V4H21V18Z" transform="translate(3 7)" fill="white"/>
<path fill-rule="evenodd" clip-rule="evenodd" d="M39 69C43.4182 69 47 65.4183 47 61C47 56.5817 43.4182 53 39 53C34.5818 53 31 56.5817 31 61C31 65.4183 34.5818 69 39 69ZM39 65C41.2092 65 43 63.2092 43 61C43 58.7908 41.2092 57 39 57C36.7908 57 35 58.7908 35 61C35 63.2092 36.7908 65 39 65Z" transform="translate(3 7)" fill="white"/>
<path fill-rule="evenodd" clip-rule="evenodd" d="M19 61C19 65.4183 15.4182 69 11 69C6.58179 69 3 65.4183 3 61C3 56.5817 6.58179 53 11 53C15.4182 53 19 56.5817 19 61ZM15 61C15 63.2092 13.2092 65 11 65C8.79077 65 7 63.2092 7 61C7 58.7908 8.79077 57 11 57C13.2092 57 15 58.7908 15 61Z" transform="translate(3 7)" fill="white"/>
<path d="M20.52 8.208C22.584 8.208 24.276 8.928 25.596 10.368C26.94 11.808 27.612 13.704 27.612 16.056V25.56H24.336V16.236C24.336 14.628 23.94 13.392 23.148 12.528C22.38 11.64 21.288 11.196 19.872 11.196C18 11.196 16.464 12.12 15.264 13.968C15.408 14.616 15.48 15.312 15.48 16.056V25.56H12.168V16.236C12.168 14.628 11.772 13.392 10.98 12.528C10.212 11.64 9.12 11.196 7.704 11.196C6 11.196 4.536 12.096 3.312 13.896V25.56H0V8.748H3.312V10.26C4.632 8.892 6.312 8.208 8.352 8.208C10.8 8.208 12.684 9.144 14.004 11.016C15.804 9.144 17.976 8.208 20.52 8.208Z" transform="translate(78.7363 12.4399)" fill="white"/>
<path d="M34.7122 4.572C34.0882 4.572 33.5722 4.38 33.1642 3.996C32.7562 3.588 32.5522 3.084 32.5522 2.484C32.5522 1.884 32.7562 1.392 33.1642 1.008C33.5722 0.6 34.0882 0.395999 34.7122 0.395999C35.3122 0.395999 35.8162 0.6 36.2242 1.008C36.6562 1.392 36.8722 1.884 36.8722 2.484C36.8722 3.084 36.6562 3.588 36.2242 3.996C35.8162 4.38 35.3122 4.572 34.7122 4.572ZM36.3682 8.748V25.56H33.0922V8.748H36.3682Z" transform="translate(78.7363 12.4399)" fill="white"/>
<path d="M45.5347 0V25.56H42.2227V0H45.5347Z" transform="translate(78.7363 12.4399)" fill="white"/>
<path d="M57.7437 18.072L54.4677 21.348V25.56H51.1557V0H54.4677V16.992L62.8917 8.748H67.1037L60.0837 15.768L68.2557 25.56H63.9717L57.7437 18.072Z" transform="translate(78.7363 12.4399)" fill="white"/>
<path d="M92.0278 8.208C94.0918 8.208 95.7838 8.928 97.1038 10.368C98.4478 11.808 99.1198 13.704 99.1198 16.056V25.56H95.8438V16.236C95.8438 14.628 95.4478 13.392 94.6558 12.528C93.8878 11.64 92.7958 11.196 91.3798 11.196C89.5078 11.196 87.9718 12.12 86.7718 13.968C86.9158 14.616 86.9878 15.312 86.9878 16.056V25.56H83.6758V16.236C83.6758 14.628 83.2798 13.392 82.4878 12.528C81.7198 11.64 80.6278 11.196 79.2118 11.196C77.5078 11.196 76.0438 12.096 74.8198 13.896V25.56H71.5078V8.748H74.8198V10.26C76.1398 8.892 77.8198 8.208 79.8598 8.208C82.3078 8.208 84.1918 9.144 85.5118 11.016C87.3118 9.144 89.4838 8.208 92.0278 8.208Z" transform="translate(78.7363 12.4399)" fill="white"/>
<path d="M120.73 8.748V25.56H117.419V24.084C115.882 25.356 114.01 25.992 111.802 25.992C109.426 25.992 107.398 25.14 105.718 23.436C104.062 21.708 103.234 19.62 103.234 17.172C103.234 14.7 104.062 12.612 105.718 10.908C107.398 9.18 109.426 8.316 111.802 8.316C114.01 8.316 115.882 8.952 117.419 10.224V8.748H120.73ZM112.271 23.112C114.479 23.112 116.195 22.212 117.419 20.412V13.896C116.195 12.096 114.479 11.196 112.271 11.196C110.662 11.196 109.306 11.784 108.202 12.96C107.099 14.136 106.547 15.54 106.547 17.172C106.547 18.78 107.099 20.172 108.202 21.348C109.306 22.524 110.662 23.112 112.271 23.112Z" transform="translate(78.7363 12.4399)" fill="white"/>
<path d="M129.523 10.44C131.131 8.952 133.027 8.208 135.211 8.208C137.395 8.208 139.147 8.928 140.467 10.368C141.811 11.784 142.483 13.68 142.483 16.056V25.56H139.207V16.236C139.207 14.652 138.787 13.416 137.947 12.528C137.131 11.64 136.003 11.196 134.563 11.196C132.667 11.196 130.987 12.132 129.523 14.004V25.56H126.211V8.748H129.523V10.44Z" transform="translate(78.7363 12.4399)" fill="white"/>
<path d="M14.742 2.48L11.62 12.056H9.646L7.56 5.994L5.488 12.056H3.5L0.392 2.48H2.52L4.522 8.892L6.72 2.48H8.414L10.612 8.892L12.614 2.48H14.742ZM21.0378 10.166H16.7258L15.9838 12H13.8278L17.9298 2.424H19.8338L23.9218 12H21.7798L21.0378 10.166ZM20.2818 8.332L18.8678 4.846L17.4678 8.332H20.2818ZM28.7782 9.046H27.1262V12H25.0962V2.48H29.1562C30.2669 2.48 31.1722 2.78333 31.8722 3.39C32.5815 3.98733 32.9362 4.776 32.9362 5.756C32.9362 6.43733 32.7589 7.03467 32.4042 7.548C32.0495 8.06133 31.5642 8.44867 30.9482 8.71L33.5522 12H31.1162L28.7782 9.046ZM27.1262 7.184H29.0862C29.6089 7.184 30.0475 7.05333 30.4022 6.792C30.7569 6.53067 30.9342 6.18533 30.9342 5.756C30.9342 5.32667 30.7569 4.98133 30.4022 4.72C30.0475 4.45867 29.6089 4.328 29.0862 4.328H27.1262V7.184ZM36.6555 4.314V6.386H41.1075V8.22H36.6555V10.166H41.6815V12H34.6255V2.48H41.6815V4.314H36.6555ZM51.5138 2.48V12H49.4838V8.276H45.2278V12H43.1978V2.48H45.2278V6.428H49.4838V2.48H51.5138ZM58.1293 2.284C59.52 2.284 60.696 2.76467 61.6573 3.726C62.628 4.68733 63.1133 5.85867 63.1133 7.24C63.1133 8.62133 62.628 9.79267 61.6573 10.754C60.696 11.7153 59.52 12.196 58.1293 12.196C56.748 12.196 55.572 11.7153 54.6013 10.754C53.64 9.79267 53.1593 8.62133 53.1593 7.24C53.1593 5.85867 53.64 4.68733 54.6013 3.726C55.572 2.76467 56.748 2.284 58.1293 2.284ZM58.1293 10.306C58.9693 10.306 59.6646 10.0073 60.2153 9.41C60.7753 8.81267 61.0553 8.08933 61.0553 7.24C61.0553 6.39067 60.7753 5.66733 60.2153 5.07C59.6646 4.47267 58.9693 4.174 58.1293 4.174C57.2986 4.174 56.6033 4.47267 56.0433 5.07C55.4833 5.66733 55.2033 6.39067 55.2033 7.24C55.2033 8.08933 55.4833 8.81267 56.0433 9.41C56.6033 10.0073 57.2986 10.306 58.1293 10.306ZM73.1189 2.48V7.674C73.1189 9.08333 72.7269 10.194 71.9429 11.006C71.1683 11.8087 70.1229 12.21 68.8069 12.21C67.5003 12.21 66.4596 11.8087 65.6849 11.006C64.9103 10.194 64.5229 9.08333 64.5229 7.674V2.48H66.5389V7.688C66.5389 8.48133 66.7443 9.12067 67.1549 9.606C67.5749 10.082 68.1256 10.32 68.8069 10.32C69.4976 10.32 70.0529 10.082 70.4729 9.606C70.8929 9.12067 71.1029 8.48133 71.1029 7.688V2.48H73.1189ZM78.4908 2.27C78.9294 2.27 79.3541 2.32133 79.7648 2.424C80.1754 2.51733 80.5768 2.676 80.9688 2.9C81.3701 3.124 81.7014 3.45067 81.9628 3.88C82.2334 4.3 82.3968 4.804 82.4528 5.392H80.4508C80.3108 4.45867 79.7088 3.992 78.6448 3.992C78.1408 3.992 77.7394 4.09467 77.4408 4.3C77.1421 4.50533 76.9928 4.79 76.9928 5.154C76.9928 5.462 77.1001 5.7 77.3148 5.868C77.5388 6.036 77.8794 6.162 78.3368 6.246L79.5128 6.484C80.4834 6.68933 81.2068 6.99733 81.6828 7.408C82.1681 7.81867 82.4108 8.40667 82.4108 9.172C82.4108 10.0867 82.0654 10.8193 81.3748 11.37C80.6841 11.9207 79.7694 12.196 78.6308 12.196C77.4641 12.196 76.4981 11.902 75.7328 11.314C74.9674 10.7167 74.5428 9.89533 74.4588 8.85H76.4748C76.5494 9.33533 76.7874 9.718 77.1888 9.998C77.5901 10.278 78.1081 10.418 78.7428 10.418C79.2468 10.418 79.6341 10.3293 79.9048 10.152C80.1754 9.97467 80.3108 9.72267 80.3108 9.396C80.3108 8.892 79.9141 8.56533 79.1208 8.416L77.5668 8.122C75.7561 7.758 74.8508 6.82467 74.8508 5.322C74.8508 4.40733 75.1821 3.67 75.8448 3.11C76.5168 2.55 77.3988 2.27 78.4908 2.27ZM86.1067 4.314V6.386H90.5587V8.22H86.1067V10.166H91.1327V12H84.0767V2.48H91.1327V4.314H86.1067Z" transform="translate(78 45)" fill="#AEE4E3"/>
</svg>
